<svg width="36" height="36" viewBox="0 0 36 36" fill="none" xmlns="http://www.w3.org/2000/svg">
<path d="M31.5 31.5L24.9855 24.9855M24.9855 24.9855C26.0998 23.8712 26.9838 22.5483 27.5868 21.0923C28.1899 19.6364 28.5003 18.0759 28.5003 16.5C28.5003 14.9241 28.1899 13.3636 27.5868 11.9077C26.9838 10.4517 26.0998 9.12883 24.9855 8.0145C23.8712 6.90016 22.5483 6.01623 21.0923 5.41316C19.6364 4.81008 18.0759 4.49969 16.5 4.49969C14.9241 4.49969 13.3636 4.81008 11.9077 5.41316C10.4517 6.01623 9.12884 6.90016 8.0145 8.0145C5.76401 10.265 4.49969 13.3173 4.49969 16.5C4.49969 19.6827 5.76401 22.735 8.0145 24.9855C10.265 27.236 13.3173 28.5003 16.5 28.5003C19.6827 28.5003 22.735 27.236 24.9855 24.9855Z" stroke="#FCF7FF" stroke-width="2.5" stroke-linecap="round" stroke-linejoin="round"/>
</svg>
